# xmcd
#
# Track frame offsets:
#	150
#	15766
#	31044
#	45717
#	61453
#	76964
#	91569
#	106911
#	121920
#	137994
#
# Disc length: 2048 seconds
#
# Revision: 0
# Processed by: cddbd v1.5.2PL0 Copyright (c) Steve Scherf et al.
# Submitted via: EasyCDDAExtractor 16.0.6.1
#
DISCID=6b07fe0a
DTITLE=Συλλογικός δίσκος - Λαϊκό τραγούδι 1954-1967, 1955-5
DYEAR=2008
DGENRE=Λαϊκή
TTITLE0=Καζαντζίδης Στέλιος - Αφήνω γειά [Γιώργος Ζαμπέτας-Κώστας Βίρβος]
TTITLE1=Καζαντζίδης Στέλιος-Μπέλλα Άννα - Η μάννα του ναύτη [Γιώργος Μητσάκης]
TTITLE2=Γαβαλάς Πάνος-Καλδάρας Απόστολος - Μένα με λένε Περικλή [Απόστολος Καλ
TTITLE2=δάρας-Κώστας Βίρβος]
TTITLE3=Καζαντζίδης Στέλιος - Θέλω να πεθάνω [Μπάμπης Μπακάλης-Κώστας Βίρβος]
TTITLE4=Νίνου Μαρίκα - Δώσ' του νάνι, νάνι [Γεράσιμος Κλουβάτος-Χαρ. Βασιλειάδ
TTITLE4=ης]
TTITLE5=Λίντα Μαίρη - Μιά φορά θα ζήσουμε όλοι [Αριστείδης Τριανταφυλλίδης]
TTITLE6=Γαβαλάς Πάνος - Τ' αηδόνια [Απόστολος Καλδάρας]
TTITLE7=Τσαουσάκης Πρόδρομος-Λύδια Γιώτα - Αδέλφια κι αδελφές μου [Μπάμπης Μπα
TTITLE7=κάλης]
TTITLE8=Λύδια Γιώτα-Ατταλίδης Στράτος - Μάννα μου για δες, πως έχω γίνει [Ιωάν
TTITLE8=νης Κυριαζής]
TTITLE9=Γκρέϋ Καίτη-Πάνου Πόλυ - Η μάννα και η κόρη [Μανώλης Χιώτης-Χρήστος Κο
TTITLE9=λοκοτρώνης]
EXTD=
EXTT0=
EXTT1=
EXTT2=
EXTT3=
EXTT4=
EXTT5=
EXTT6=
EXTT7=
EXTT8=
EXTT9=
PLAYORDER=
